HIERARCHY
ROOT Hips
{
  OFFSET 0 0 0
  CHANNELS 6 Xposition Yposition Zposition Zrotation Yrotation Xrotation
  JOINT LeftThigh
  {
    OFFSET 8.409438 0 -5.917753
    CHANNELS 3 Zrotation Yrotation Xrotation
    JOINT LeftLeg
    {
      OFFSET 0 0 -42.358652
      CHANNELS 3 Zrotation Yrotation Xrotation
      JOINT LeftFoot
      {
        OFFSET 0 0 -39.357303
        CHANNELS 3 Zrotation Yrotation Xrotation
      }
    }
  }
  JOINT RightThigh
  {
    OFFSET -8.409438 0 -5.917753
    CHANNELS 3 Zrotation Yrotation Xrotation
    JOINT RightLeg
    {
      OFFSET 0 0 -42.358652
      CHANNELS 3 Zrotation Yrotation Xrotation
      JOINT RightFoot
      {
        OFFSET 0 0 -39.357303
        CHANNELS 3 Zrotation Yrotation Xrotation
      }
    }
  }
  JOINT SpineLow
  {
    OFFSET 0 0 4.719101
    CHANNELS 3 Zrotation Yrotation Xrotation
    JOINT SpineMid
    {
      OFFSET 0 0 12.899191
      CHANNELS 3 Zrotation Yrotation Xrotation
      JOINT Chest
      {
        OFFSET 0 0 12.899191
        CHANNELS 3 Zrotation Yrotation Xrotation
        JOINT LeftShoulder
        {
          OFFSET 7.550562 1.41573 9.438202
          CHANNELS 3 Zrotation Yrotation Xrotation
          JOINT LeftArm
          {
            OFFSET 9.155056 0 4.247191
            CHANNELS 3 Zrotation Yrotation Xrotation
            JOINT LeftForearm
            {
              OFFSET 0 0 25.771955
              CHANNELS 3 Zrotation Yrotation Xrotation
              JOINT LeftHand
              {
                OFFSET 0 0 25.197169
                CHANNELS 3 Zrotation Yrotation Xrotation
              }
            }
          }
        }
        JOINT RightShoulder
        {
          OFFSET -7.550562 1.41573 9.438202
          CHANNELS 3 Zrotation Yrotation Xrotation
          JOINT RightArm
          {
            OFFSET -9.155056 0 4.247191
            CHANNELS 3 Zrotation Yrotation Xrotation
            JOINT RightForearm
            {
              OFFSET 0 0 -25.771955
              CHANNELS 3 Zrotation Yrotation Xrotation
              JOINT RightHand
              {
                OFFSET 0 0 -25.197169
                CHANNELS 3 Zrotation Yrotation Xrotation
              }
            }
          }
        }
        JOINT Neck
        {
          OFFSET 0 0 15.101124
          CHANNELS 3 Zrotation Yrotation Xrotation
          JOINT Head
          {
            OFFSET 0 0 11.325843
            CHANNELS 3 Zrotation Yrotation Xrotation
            End Site
            {
              OFFSET 0 0 14.157303
            }
          }
        }
      }
    }
  }
}
MOTION
Frames: 8
Frame Time: 0.0
0.0  89.887642  0.0  2.164147  3.347418  -96.132893  6.113892  -10.163368  1.663484  -2.057075  1.761289  13.687799  1.225244  0.178173  0.997406  -16.061531  13.506436  -1.743202  -12.09944  7.11132  15.552147  5.862138  2.104957  -0.752205  -1.102872  -0.109221  0.289953  -3.015866  -0.285249  0.797353  -3.015866  -0.285249  0.797353  -7.451011  15.191789  6.572492  146.549055  33.320448  -167.486053  -4.465368  -2.232099  57.251502  90.285377  -3.032113  7.317741  -4.74127  -8.899238  17.911937  88.222332  25.514396  44.916991  3.00084  21.376165  -35.053248  104.023279  -8.471566  -8.80872  -20.220792  -5.334542  -27.130512  -15.428383  -3.113554  -20.536799  
0.0  89.887642  0.0  2.103288  4.19846  -96.088787  6.158838  -10.349605  1.064497  -2.68916  2.086105  14.241147  1.208357  0.136359  1.059813  -16.250562  13.293466  -1.746118  -13.350183  7.190797  15.57367  6.881017  2.489432  -0.49104  -1.142049  -0.121459  0.276439  -3.12304  -0.318854  0.761166  -3.123039  -0.318854  0.761166  -7.879428  15.486268  6.500515  146.484449  33.559741  -167.398542  -4.10592  -2.110073  56.704785  90.337487  -2.793132  7.6211  -5.357848  -8.525495  17.930253  87.381513  25.316535  44.440982  2.74586  21.915535  -35.708531  103.916627  -8.77538  -8.147212  -20.767868  -5.211945  -27.292189  -15.836228  -2.991559  -20.660914  
0.0  89.887642  0.0  2.077517  5.26401  -95.884385  6.170298  -10.545609  0.145447  -3.202831  2.493836  15.005702  1.112432  0.089531  1.115215  -16.356609  13.088283  -1.890659  -13.131109  7.284389  16.0934  6.62294  2.638045  -0.395196  -1.227714  -0.130962  0.231672  -3.357082  -0.346103  0.639717  -3.357082  -0.346103  0.639716  -8.201955  15.737722  6.446963  146.451014  33.817521  -167.196213  -3.500029  -2.012309  56.2242  90.319372  -2.506016  8.028886  -5.800208  -8.075449  18.02617  86.549301  25.177007  43.947388  2.428531  22.691187  -36.476675  103.746452  -9.025362  -7.396481  -21.11918  -5.108742  -27.333388  -16.096411  -2.896767  -20.692803  
0.0  89.887642  0.0  2.001467  6.470409  -95.580097  6.285987  -10.738582  -0.90548  -3.68084  2.863192  15.850011  0.917308  0.032257  1.105799  -16.399427  12.807822  -2.188678  -13.352464  7.533433  16.846566  6.389221  2.876862  -0.364496  -1.309637  -0.157143  0.202425  -3.581092  -0.418426  0.561637  -3.581093  -0.418426  0.561637  -8.717678  15.953897  6.196631  146.319899  34.123511  -166.849231  -2.638881  -2.017163  55.758198  90.254727  -2.15473  8.607471  -6.546888  -7.536778  17.814529  85.808826  25.022084  43.446596  2.196962  23.595226  -37.374193  103.45731  -9.281376  -6.726482  -21.650524  -5.014739  -27.553081  -16.494232  -2.794512  -20.860855  
0.0  89.887642  0.0  1.888735  7.818773  -95.200685  6.294145  -10.91166  -2.151149  -4.074627  3.245002  16.728413  0.755733  -0.015441  1.13235  -16.35312  12.526267  -2.688885  -14.088114  8.023314  17.900246  6.154331  3.062868  -0.392816  -1.410668  -0.187663  0.180475  -3.857364  -0.50223  0.50407  -3.857365  -0.50223  0.50407  -9.139447  16.104593  5.947439  146.017261  34.480617  -166.351787  -1.516212  -2.142279  55.364518  90.203932  -1.689217  9.360261  -7.079971  -7.044634  17.544417  84.901274  24.944952  42.925015  1.815257  24.433311  -38.467881  103.10045  -9.717102  -6.121861  -22.112397  -4.995146  -27.758915  -16.842775  -2.751553  -21.019945  
0.0  89.887642  0.0  1.659658  9.23812  -94.718633  6.250916  -11.200401  -3.546719  -4.329281  3.67395  17.611598  0.686962  -0.052709  1.1747  -16.037589  12.064655  -3.3562  -15.373965  8.88028  19.165624  5.883226  3.164736  -0.481587  -1.503108  -0.237882  0.15308  -4.110202  -0.640424  0.433037  -4.110202  -0.640424  0.433037  -9.844531  16.176968  5.510101  145.601676  34.77502  -165.873562  -0.233349  -2.362501  54.97703  90.210626  -1.145995  10.16144  -7.948871  -6.602569  17.028447  84.251023  24.752693  42.554306  1.381427  25.096299  -39.701968  102.718645  -10.32292  -5.351769  -22.69519  -4.993995  -28.025559  -17.283663  -2.714391  -21.226667  
0.0  89.887642  0.0  1.32375  10.596862  -94.152646  6.430187  -11.656773  -5.032795  -4.631877  4.211387  18.370635  0.512486  -0.078979  1.119428  -15.136057  11.381283  -4.037667  -17.020159  9.882323  20.43234  5.761788  3.3341  -0.426941  -1.579746  -0.294855  0.134787  -4.319899  -0.796755  0.387518  -4.319899  -0.796755  0.387518  -10.52326  16.085007  4.926189  144.867408  35.107919  -165.443545  1.310751  -2.580749  54.637824  90.321813  -0.608548  10.831655  -8.525379  -6.265183  16.481766  83.415718  24.711284  42.085545  0.836406  25.622304  -40.993101  102.338881  -11.097482  -4.373726  -23.274821  -5.10701  -28.30093  -17.72714  -2.762546  -21.443731  
0.0  89.887642  0.0  1.118253  12.860839  -93.054697  6.077639  -11.949586  -6.956023  -4.909821  4.813302  19.063949  0.43951  -0.09321  1.108458  -14.556976  10.672583  -5.20704  -18.578287  10.68327  21.627477  5.412276  3.485375  -0.188409  -1.824145  -0.327265  0.036135  -4.986885  -0.891237  0.123388  -4.986885  -0.891237  0.123388  -11.188756  15.89556  4.216753  143.971108  35.427812  -165.124699  2.999007  -2.787517  54.350104  90.480694  -0.129789  11.358858  -9.151629  -6.037247  15.702573  83.02548  24.47368  41.797625  0.29811  26.108162  -42.284648  101.977042  -12.004145  -3.183471  -23.777032  -5.289982  -28.566458  -18.115406  -2.866911  -21.655093  
